HIERARCHY
ROOT Hips
{
	OFFSET	0.00	0.00	0.00
	CHANNELS 6 Xposition Yposition Zposition Zrotation Xrotation Yrotation
	JOINT LeftUpLeg
	{
		OFFSET	 0.126116	-0.014019	-0.065224
		CHANNELS 3 Zrotation Xrotation Yrotation
		JOINT LeftLeg
		{
			OFFSET	 0.000000	 0.000000	 0.569914
			CHANNELS 3 Zrotation Xrotation Yrotation
			JOINT LeftFoot
			{
				OFFSET	 0.000000	 0.000000	 0.544423
				CHANNELS 3 Zrotation Xrotation Yrotation
				JOINT LeftToeBase
				{
					OFFSET	 0.000000	 0.000000	 0.207117
					CHANNELS 3 Zrotation Xrotation Yrotation
					End Site
					{
						OFFSET	 0.000000	 0.000000	 0.207117
					}
				}
			}
		}
	}
	JOINT RightUpLeg
	{
		OFFSET	-0.124023	-0.008373	-0.065224
		CHANNELS 3 Zrotation Xrotation Yrotation
		JOINT RightLeg
		{
			OFFSET	 0.000000	 0.000000	 0.570047
			CHANNELS 3 Zrotation Xrotation Yrotation
			JOINT RightFoot
			{
				OFFSET	 0.000000	 0.000000	 0.544354
				CHANNELS 3 Zrotation Xrotation Yrotation
				JOINT RightToeBase
				{
					OFFSET	 0.000000	 0.000000	 0.207540
					CHANNELS 3 Zrotation Xrotation Yrotation
					End Site
					{
						OFFSET	 0.000000	 0.000000	 0.207540
					}
				}
			}
		}
	}
	JOINT Spine
	{
		OFFSET	 0.000184	-0.007763	 0.117403
		CHANNELS 3 Zrotation Xrotation Yrotation
		JOINT Spine1
		{
			OFFSET	 0.000000	 0.000000	 0.137269
			CHANNELS 3 Zrotation Xrotation Yrotation
			JOINT Spine2
			{
				OFFSET	 0.000000	 0.000000	 0.156879
				CHANNELS 3 Zrotation Xrotation Yrotation
				JOINT LeftShoulder
				{
					OFFSET	 0.080501	-0.002496	 0.160144
					CHANNELS 3 Zrotation Xrotation Yrotation
					JOINT LeftArm
					{
						OFFSET	 0.000000	 0.000000	 0.164363
						CHANNELS 3 Zrotation Xrotation Yrotation
						JOINT LeftForeArm
						{
							OFFSET	 0.000000	 0.000000	 0.364576
							CHANNELS 3 Zrotation Xrotation Yrotation
							JOINT LeftHand
							{
								OFFSET	 0.000000	 0.000000	 0.360812
								CHANNELS 3 Zrotation Xrotation Yrotation
								JOINT LeftHandIndex1
								{
									OFFSET	 0.000000	 0.000000	 0.086006
									CHANNELS 3 Zrotation Xrotation Yrotation
									JOINT LeftHandIndex2
									{
										OFFSET	 0.000000	 0.000000	 0.047236
										CHANNELS 3 Zrotation Xrotation Yrotation
										JOINT LeftHandIndex3
										{
											OFFSET	-0.004284	-0.000551	 0.038166
											CHANNELS 3 Zrotation Xrotation Yrotation
											End Site
											{
												OFFSET	-0.004284	-0.000551	 0.038166
											}
										}
									}
								}
							}
						}
					}
				}
				JOINT Neck
				{
					OFFSET	 0.000000	 0.000000	 0.176489
					CHANNELS 3 Zrotation Xrotation Yrotation
					JOINT Head
					{
						OFFSET	 0.000000	-0.001747	 0.077940
						CHANNELS 3 Zrotation Xrotation Yrotation
						End Site
						{
							OFFSET	 0.000000	-0.001747	 0.077940
						}
					}
				}
				JOINT RightShoulder
				{
					OFFSET	-0.080363	 0.000306	 0.159706
					CHANNELS 3 Zrotation Xrotation Yrotation
					JOINT RightArm
					{
						OFFSET	 0.000000	 0.000000	 0.164196
						CHANNELS 3 Zrotation Xrotation Yrotation
						JOINT RightForeArm
						{
							OFFSET	 0.000000	 0.000000	 0.365611
							CHANNELS 3 Zrotation Xrotation Yrotation
							JOINT RightHand
							{
								OFFSET	 0.000000	 0.000000	 0.360648
								CHANNELS 3 Zrotation Xrotation Yrotation
								JOINT RightHandIndex1
								{
									OFFSET	 0.000000	 0.000000	 0.069977
									CHANNELS 3 Zrotation Xrotation Yrotation
									JOINT RightHandIndex2
									{
										OFFSET	 0.000000	 0.000000	 0.052305
										CHANNELS 3 Zrotation Xrotation Yrotation
										JOINT RightHandIndex3
										{
											OFFSET	 0.009002	-0.000782	 0.042196
											CHANNELS 3 Zrotation Xrotation Yrotation
											End Site
											{
												OFFSET	 0.009002	-0.000782	 0.042196
											}
										}
									}
								}
							}
						}
					}
				}
			}
		}
	}
}
MOTION
Frames:    7
Frame Time: 0.03333334
-0.000500	 0.022007	 1.265665	-0.000446	 0.011401	-0.115805	-13.423500	-3.762987	-179.916800	 1.404477	-16.517680	-0.977512	-5.404367	 73.884560	-0.927520	-2.385833	 28.452760	 0.000004	 13.321900	-4.374986	-179.811300	-1.379375	-17.243280	 1.004296	 5.448277	 73.984000	 0.717244	 2.384658	 28.388730	 0.000004	 2.141909	 1.911862	 0.059103	 1.158151	 6.516618	 0.376278	-3.418545	-8.320518	-0.889417	-91.776180	 78.527450	 180.000000	 64.913440	 44.680860	-45.696370	-7.899805	 3.505363	-8.791068	-30.121440	-17.830150	-4.463508	-2.635965	 4.993658	 6.788941	-5.165319	 0.784187	 3.516649	-5.225038	 0.466231	 0.424329	-0.000002	-3.783157	-0.089647	-3.206494	 3.179496	 0.089000	 89.782200	 78.203850	 179.999900	 5.477671	 13.196550	 90.992900	-33.954400	-3.716173	 11.098430	 1.500368	-18.298040	-6.447340	 6.112037	 4.509576	-0.364401	 4.968462	 1.518543	-9.347576	 5.168945	 0.703820	 2.021906
-0.000548	 0.023061	 1.266096	-0.000744	 0.008975	-0.138124	-13.422700	-3.615891	-179.911300	 1.410367	-16.183130	-0.956607	-5.322171	 73.701710	-1.012645	-2.385833	 28.452760	 0.000004	 13.326200	-4.310730	-179.770500	-1.383538	-17.014400	 0.990142	 5.407654	 73.812580	 0.757620	 2.384658	 28.388730	 0.000004	 2.571289	 1.982295	 0.047264	 1.377500	 6.285535	 0.448916	-4.080469	-7.994244	-1.044618	-91.776180	 78.527470	 180.000000	 64.945270	 44.610130	-45.977700	-7.914467	 3.409564	-8.548486	-30.131820	-17.947670	-4.466523	-2.635965	 4.993658	 6.788941	-5.165319	 0.784187	 3.516649	-5.225038	 0.466231	 0.424329	-0.000002	-3.783157	-0.089647	-3.843922	 3.276870	 0.109978	 89.782110	 78.203920	 180.000000	 5.655090	 13.436480	 91.061370	-34.121360	-3.747494	 11.083980	 1.481515	-18.550370	-6.532422	 6.112037	 4.509576	-0.364401	 4.968462	 1.518543	-9.347576	 5.168945	 0.703820	 2.021906
-0.000588	 0.024000	 1.266477	-0.000910	 0.006658	-0.155625	-13.422210	-3.484095	-179.908500	 1.415494	-15.884980	-0.938037	-5.249946	 73.538760	-1.087488	-2.385833	 28.452760	 0.000004	 13.329710	-4.251525	-179.736200	-1.387278	-16.805730	 0.977267	 5.371571	 73.657500	 0.793529	 2.384658	 28.388730	 0.000004	 2.920355	 2.054191	 0.034661	 1.553379	 6.047904	 0.511918	-4.613719	-7.661772	-1.163141	-91.776130	 78.527490	 180.000000	 65.005130	 44.514710	-46.263630	-7.925963	 3.332733	-8.353981	-30.153840	-18.080790	-4.471770	-2.635965	 4.993658	 6.788941	-5.165319	 0.784187	 3.516649	-5.225038	 0.466231	 0.424329	-0.000002	-3.783157	-0.089647	-4.362731	 3.380593	 0.128791	 89.782100	 78.203870	 180.000000	 5.827732	 13.733770	 91.126790	-34.287620	-3.782054	 11.078960	 1.437483	-18.731120	-6.597299	 6.112037	 4.509576	-0.364401	 4.968462	 1.518543	-9.347576	 5.168945	 0.703820	 2.021906
-0.000623	 0.025030	 1.266896	-0.000891	 0.005216	-0.169995	-13.411560	-3.340673	-179.911300	 1.420966	-15.559890	-0.917848	-5.158085	 73.360970	-1.171694	-2.385833	 28.452760	 0.000004	 13.342780	-4.187101	-179.702800	-1.391402	-16.572840	 0.962931	 5.348266	 73.484660	 0.826035	 2.384658	 28.388730	 0.000004	 3.265364	 2.141072	 0.016550	 1.724474	 5.754212	 0.578761	-5.135223	-7.255141	-1.271093	-91.776150	 78.527400	 180.000000	 65.116460	 44.400270	-46.653280	-7.938029	 3.249958	-8.144601	-30.193130	-18.256280	-4.480263	-2.635965	 4.993658	 6.788941	-5.165319	 0.784187	 3.516649	-5.225038	 0.466231	 0.424329	-0.000002	-3.783157	-0.089647	-4.876260	 3.513729	 0.149643	 89.782110	 78.203870	 180.000000	 5.926562	 14.237810	 91.152420	-34.347490	-3.809011	 11.118280	 0.537114	-18.642720	-6.604092	 6.112037	 4.509576	-0.364401	 4.968462	 1.518543	-9.347576	 5.168945	 0.703820	 2.021906
-0.000626	 0.025912	 1.267152	-0.000414	 0.004316	-0.179599	-13.411130	-3.255287	-179.913100	 1.424280	-15.359260	-0.905424	-5.113178	 73.248040	-1.216987	-2.385833	 28.452760	 0.000004	 13.346080	-4.168677	-179.678500	-1.393637	-16.444840	 0.955068	 5.337712	 73.372100	 0.836202	 2.384658	 28.388730	 0.000004	 3.530306	 2.223527	-0.001360	 1.853327	 5.472697	 0.635272	-5.531075	-6.869309	-1.345954	-91.776220	 78.527450	-180.000000	 65.262400	 44.310590	-47.072270	-7.946519	 3.189369	-7.991463	-30.241700	-18.430830	-4.490329	-2.635965	 4.993658	 6.788941	-5.165319	 0.784187	 3.516649	-5.225038	 0.466231	 0.424329	-0.000002	-3.783157	-0.089647	-5.271648	 3.646625	 0.167919	 89.782100	 78.203890	 180.000000	 5.939055	 15.408870	 91.451870	-33.830730	-3.530980	 10.634450	-0.418491	-18.722280	-6.549857	 6.112037	 4.509576	-0.364401	 4.968462	 1.518543	-9.347576	 5.168945	 0.703820	 2.021906
-0.000602	 0.026875	 1.267376	 0.000170	 0.003229	-0.187441	-13.410920	-3.183324	-179.915500	 1.427110	-15.185330	-0.894670	-5.075732	 73.147670	-1.254481	-2.385833	 28.452760	 0.000004	 13.349470	-4.166801	-179.655600	-1.395449	-16.340140	 0.948642	 5.336270	 73.266300	 0.836620	 2.384658	 28.388730	 0.000004	 3.779497	 2.320913	-0.022403	 1.971920	 5.139228	 0.693636	-5.897867	-6.417132	-1.406591	-91.776210	 78.527430	-180.000000	 65.496870	 44.242630	-47.657990	-7.954252	 3.133826	-7.851156	-30.309810	-18.638690	-4.504015	-2.635965	 4.993658	 6.788941	-5.165319	 0.784187	 3.516649	-5.225038	 0.466231	 0.424329	-0.000002	-3.783157	-0.089647	-5.644263	 3.810645	 0.187901	 89.782100	 78.203900	-180.000000	 5.485484	 17.643160	 91.429950	-32.260680	-3.201268	 10.616350	-0.372471	-19.459720	-6.478150	 6.112037	 4.509576	-0.364401	 4.968462	 1.518543	-9.347576	 5.168945	 0.703820	 2.021906
-0.000618	 0.027864	 1.268132	 0.000758	 0.002168	-0.192222	-13.411290	-2.907735	-179.937600	 1.436506	-14.591910	-0.858113	-4.935716	 72.832980	-1.399616	-2.385833	 28.452760	 0.000004	 13.351020	-3.970925	-179.620300	-1.403981	-15.836980	 0.917861	 5.233125	 72.959090	 0.943233	 2.384658	 28.388730	 0.000004	 3.971410	 2.418431	-0.043050	 2.060669	 4.804198	 0.744016	-6.174651	-5.967990	-1.442938	-91.776260	 78.527470	-180.000000	 65.809870	 44.216110	-48.371530	-7.961268	 3.082605	-7.721795	-30.380080	-18.839530	-4.518160	-2.635965	 4.993658	 6.788941	-5.165319	 0.784187	 3.516649	-5.225038	 0.466231	 0.424329	-0.000002	-3.783157	-0.089647	-5.932031	 3.982670	 0.206422	 89.782180	 78.203870	 179.999900	 2.492402	 20.350770	 90.336290	-30.029650	-3.092981	 11.902130	 1.006111	-20.691700	-6.347179	 6.112037	 4.509576	-0.364401	 4.968462	 1.518543	-9.347576	 5.168945	 0.703820	 2.021906
